<?xml version="1.0" encoding="utf-8"?>
<!-- Generator: Adobe Illustrator 27.3.1, SVG Export Plug-In . SVG Version: 6.00 Build 0)  -->
<svg version="1.1" id="Layer_1" xmlns="http://www.w3.org/2000/svg" xmlns:xlink="http://www.w3.org/1999/xlink" x="0px" y="0px"
	 viewBox="0 0 863 244" style="enable-background:new 0 0 863 244;" xml:space="preserve">
<style type="text/css">
	.st0{fill-rule:evenodd;clip-rule:evenodd;}
</style>
<path d="M309,110.6l-30.4-64.1v64.1h-18.7V9.8h19.9L309,71.3V9.8h18.6v100.8C327.6,110.6,309,110.6,309,110.6z"/>
<path d="M361.2,62.8v1.4h23.3v-1.4c0-4.1-1.1-7.3-3.2-9.6c-2.1-2.4-4.9-3.6-8.5-3.6s-6.4,1.2-8.5,3.6
	C362.3,55.5,361.2,58.7,361.2,62.8z M384.5,83.4l18.1,4c-0.1,0.7-0.2,1.6-0.4,2.7c-0.2,1.1-0.9,3-2.2,5.9c-1.2,2.8-2.9,5.3-4.9,7.5
	c-1.9,2.1-4.9,4.1-8.9,5.9c-3.9,1.7-8.5,2.6-13.7,2.6c-9.2,0-16.7-2.6-22.3-7.9c-5.6-5.3-8.4-12.6-8.4-21.9V65.1
	c0-9.3,2.9-16.7,8.6-22.2c5.8-5.5,13.3-8.2,22.6-8.2c9,0,16.3,2.7,21.7,8.1c5.6,5.3,8.4,12.5,8.4,21.7v11.7h-42v5.6
	c0,4.1,1.1,7.4,3.2,9.8c2.1,2.3,4.9,3.5,8.5,3.5c3.2,0,5.7-1,7.6-2.9s3.1-3.8,3.5-5.8L384.5,83.4z"/>
<path d="M427.4,110.6l-21.2-74.4h20.4l10.5,45.1L448,36.2h13l11,45l10.5-45.1h19.4l-21.3,74.4h-16.4L454.1,69l-10.2,41.5
	L427.4,110.6L427.4,110.6z"/>
<path d="M260.6,234.6V133.8h21v100.8H260.6z"/>
<path d="M298.2,234.6v-74.4H315l0.9,8.6c4.3-6.7,10.8-10.1,19.6-10.1c7.1,0,12.7,2.4,16.8,7.1c4.2,4.6,6.3,11.1,6.3,19.4v49.4h-19.3
	v-44.9c0-9.3-3.5-14-10.5-14c-3.6,0-6.3,1.2-8.4,3.5c-2,2.2-3,5.6-3,10.2v45.2H298.2z"/>
<path d="M411.9,204.8h18.7v1.6c0,9-2.8,16.2-8.5,21.6c-5.6,5.4-12.8,8.1-21.6,8.1s-16-2.6-21.5-7.8s-8.2-12.3-8.2-21.3v-18.6
	c0-9,2.8-16.2,8.4-21.6c5.7-5.4,12.9-8.1,21.7-8.1s16,2.6,21.5,7.8s8.2,12.3,8.2,21.3v1.4h-18.7v-1c0-3.9-1-7-2.9-9.2
	s-4.6-3.3-7.9-3.3c-3.4,0-6,1.1-8.1,3.3c-1.9,2.2-2.9,5.3-2.9,9.2v18.3c0,3.9,1,7,2.9,9.2c2,2.2,4.7,3.3,8.1,3.3s6-1.1,7.9-3.3
	s2.9-5.3,2.9-9.2V204.8z"/>
<path d="M461.5,186.8v1.4h23.3v-1.4c0-4.1-1.1-7.3-3.2-9.6c-2.1-2.4-4.9-3.6-8.5-3.6s-6.4,1.2-8.5,3.6
	C462.5,179.5,461.5,182.7,461.5,186.8z M484.8,207.4l18.1,4c-0.1,0.7-0.2,1.6-0.4,2.7c-0.2,1.1-0.9,3-2.2,5.9
	c-1.2,2.8-2.9,5.3-4.9,7.5c-1.9,2.1-4.9,4.1-8.9,5.9c-3.9,1.7-8.5,2.6-13.7,2.6c-9.2,0-16.7-2.6-22.3-7.9
	c-5.6-5.3-8.4-12.6-8.4-21.9v-17.1c0-9.3,2.9-16.7,8.6-22.2s13.3-8.2,22.6-8.2c9,0,16.3,2.7,21.7,8.1c5.6,5.3,8.4,12.5,8.4,21.7
	v11.7h-42v5.6c0,4.1,1.1,7.4,3.2,9.8c2.1,2.3,4.9,3.5,8.5,3.5c3.2,0,5.7-1,7.6-2.9s3.1-3.8,3.5-5.8L484.8,207.4z"/>
<path d="M516.5,234.6v-74.4h16.8l0.9,8.6c4.3-6.7,10.8-10.1,19.6-10.1c7.1,0,12.7,2.4,16.8,7.1c4.2,4.6,6.3,11.1,6.3,19.4v49.4
	h-19.3v-44.9c0-9.3-3.5-14-10.5-14c-3.6,0-6.3,1.2-8.4,3.5c-2,2.2-3,5.6-3,10.2v45.2H516.5z"/>
<path d="M613.5,142.5v17.7h18.1V175h-18.1v35.9c0,3,0.6,5.1,1.9,6.3c1.3,1.2,3.4,1.9,6.2,1.9c1.2,0,2.5-0.1,3.9-0.3s2.4-0.4,3.2-0.6
	l1-0.1l2,15.8c-3.6,1.4-9.1,2.2-16.4,2.2c-6.6,0-11.8-1.8-15.6-5.3c-3.6-3.6-5.5-8.8-5.5-15.6V175h-10.8v-14.8h10.8v-17.7H613.5z"/>
<path d="M643.2,234.6v-74.4h19.7v74.4H643.2z M653.1,128.1c3.5,0,6.3,1.2,8.5,3.5c2.3,2.2,3.5,5,3.5,8.5c0,3.4-1.2,6.2-3.5,8.5
	c-2.2,2.2-5,3.3-8.5,3.3c-3.6,0-6.5-1.1-8.8-3.3c-2.2-2.3-3.3-5.1-3.3-8.5c0-3.5,1.1-6.3,3.3-8.5
	C646.6,129.2,649.6,128.1,653.1,128.1z"/>
<path d="M695.2,234.6l-24.3-74.4h20.4l13.2,46.5l13.1-46.5H737l-24.3,74.4H695.2z"/>
<path d="M759.3,186.8v1.4h23.3v-1.4c0-4.1-1.1-7.3-3.2-9.6c-2.1-2.4-4.9-3.6-8.5-3.6s-6.4,1.2-8.5,3.6
	C760.4,179.5,759.3,182.7,759.3,186.8z M782.6,207.4l18.1,4c-0.1,0.7-0.2,1.6-0.4,2.7c-0.2,1.1-0.9,3-2.2,5.9
	c-1.2,2.8-2.9,5.3-4.9,7.5c-1.9,2.1-4.9,4.1-8.9,5.9c-3.9,1.7-8.5,2.6-13.7,2.6c-9.2,0-16.7-2.6-22.3-7.9
	c-5.6-5.3-8.4-12.6-8.4-21.9v-17.1c0-9.3,2.9-16.7,8.6-22.2c5.8-5.5,13.3-8.2,22.6-8.2c9,0,16.3,2.7,21.7,8.1
	c5.6,5.3,8.4,12.5,8.4,21.7v11.7h-42v5.6c0,4.1,1.1,7.4,3.2,9.8c2.1,2.3,4.9,3.5,8.5,3.5c3.2,0,5.7-1,7.6-2.9
	c1.9-1.9,3.1-3.8,3.5-5.8L782.6,207.4z"/>
<path d="M841.6,189.4c6.8,2.8,12,6.1,15.4,9.9c3.5,3.8,5.2,8.5,5.2,14.1c0,6.9-2.5,12.4-7.5,16.6c-4.9,4-11.3,6-19.2,6
	c-3.4,0-6.6-0.4-9.8-1.2s-5.9-1.7-8.1-2.9c-2.1-1.2-4-2.3-5.6-3.5s-2.9-2.1-3.7-2.9l-1.2-1.2l9.9-12.4c0.8,0.7,1.7,1.5,2.9,2.4
	s3.5,2.1,6.6,3.7c3.2,1.5,6,2.3,8.5,2.3s4.4-0.6,5.8-1.7c1.4-1.2,2.2-2.6,2.2-4.5s-1-3.7-2.9-5.3c-1.9-1.7-5.3-3.6-10.2-5.6
	c-12.6-5.2-18.9-13-18.9-23.5c0-6.2,2.4-11.3,7.1-15.3c4.8-4,10.8-6,18.1-6c5,0,9.6,0.8,13.8,2.4c4.3,1.6,7.3,3.3,9.1,4.9l2.6,2.4
	L851.6,181c-0.5-0.5-1.2-1.1-2-1.9c-0.9-0.8-2.6-1.8-5.2-3c-2.5-1.3-4.9-2-7.2-2c-2.1,0-3.8,0.5-5,1.6s-1.9,2.3-1.9,3.7
	C830.3,183,834.1,186.3,841.6,189.4z"/>
<path class="st0" d="M206.9,190.4L206.9,190.4L206.9,190.4z"/>
<path class="st0" d="M113.7,109.6c30.1,0,54.5-24.4,54.5-54.5c0-2.5-0.2-5-0.5-7.5c-1.7-12.7-7.8-24-16.7-32.3
	c-9.7-9.1-22.8-14.7-37.2-14.7c-1,0-2,0-3.1,0.1C100.6,1.3,91.2,4.6,83.2,10c-9.7,6.6-17.2,16.2-21,27.5c-0.4,1.3-0.8,2.6-1.1,3.8
	c-0.2,0.7-0.4,1.4-0.6,2.1c-0.8,3.8-1.2,7.7-1.2,11.6c0,18.6,9.4,35.1,23.6,44.9C91.6,106,102.2,109.6,113.7,109.6z M143.5,54.3
	c0,17.3-14,31.3-31.3,31.3s-31.3-14-31.3-31.3c0-1.5,0.1-3,0.3-4.4c0.4-2.9,1.2-5.6,2.3-8.1c2.1-4.8,5.3-8.9,9.4-12.1
	c5.3-4.2,12-6.7,19.3-6.7c8.1,0,15.5,3.1,21.1,8.2C139.6,36.9,143.5,45.1,143.5,54.3z"/>
<path class="st0" d="M7.4,187.8c1.8,2.9,3.7,5.7,5.7,8.4c21.6,28.9,55.9,47.7,94.8,47.7c40.1,0,75.6-20,97-50.5c0.7-1,1.3-1.9,2-2.9
	v-0.1c1.6-2.5,2.9-5.1,4.1-7.8c2.7-6.4,4.2-13.4,4.2-20.8c0-1.4-0.1-2.8-0.2-4.2c-0.7-9.6-4-18.4-9-25.9
	c-9.7-14.3-26-23.7-44.5-23.7c-23.2,0-43,14.7-50.5,35.3c-4.4-3.9-8.5-8.2-12.1-12.8c-8.2-11.6-21-19.8-35.6-22
	c-2.7-0.4-5.8-0.4-8.6-0.4c-16.8,0-31.8,7.7-41.7,19.7C5.4,137.1,0.8,149,0.8,161.9C0.8,171.3,3.2,180.1,7.4,187.8z M194.3,162.5
	c0-17.7-14.4-32.1-32.1-32.1c-15.7,0-28.8,11.3-31.6,26.3c12.9,6.6,27.6,10.3,43.1,10.3c7,0,13.9-0.8,20.4-2.2
	C194.2,164.1,194.3,163.3,194.3,162.5z M25,162.8c0-17.5,14.2-31.6,31.6-31.6c9.1,0,17.3,3.9,23.1,10c1.1,1.5,2.3,3.1,3.5,4.6
	c7.1,8.7,15.4,16.3,24.7,22.7c0-0.1,0-0.2,0-0.2c0,0.1,0,0.2,0,0.3c8.9,6.1,18.8,11,29.2,14.4c11.5,3.8,23.7,5.8,36.4,5.8
	c2.5,0,5-0.1,7.4-0.2c0.4,0,0.9-0.1,1.3-0.1c-9.5,10.9-21.4,19.6-34.8,25.4c-11.7,5-24.5,7.8-38,7.8c-13.9,0-27.1-2.9-39-8.2
	c-14.9-6.6-27.7-16.8-37.6-29.5c-1.5-1.6-2.7-3.4-3.8-5.3C26.5,173.9,25,168.5,25,162.8z"/>
</svg>
